# xmcd
#
# Track frame offsets:
#	150
#	12917
#	26880
#	40747
#	56620
#	69472
#	80837
#	98355
#	111879
#	124225
#	140092
#	154325
#	169812
#	184415
#
# Disc length: 2639 seconds
#
# Revision: 1
# Processed by: cddbd v1.5.2PL0 Copyright (c) Steve Scherf et al.
# Submitted via: audiograbber 1.83.01
#
DISCID=c40a4d0e
DTITLE=LÁZARO DO PIAUÍ - FUNGANDO NO FORRÓ
DYEAR=1900
DGENRE=FORRÓ
TTITLE0=FUNGANDO NO FORRÓ
TTITLE1=PRA VOCÊ, ROSA
TTITLE2=MORENINHA
TTITLE3=AMOR TODO DIA
TTITLE4=MELÔ DO ITAMAR
TTITLE5=NÃO EXISTE EX
TTITLE6=ME CHAME QUE EU VOU
TTITLE7=DEIXA O AMOR ENTRAR
TTITLE8=SÃO JOÃO SÓ
TTITLE9=MORENA
TTITLE10=AGORA É TARDE
TTITLE11=FORRÓ DO REMELEXO
TTITLE12=GOSTOSURA
TTITLE13=QUE BOM
EXTD=
EXTT0=
EXTT1=
EXTT2=
EXTT3=
EXTT4=
EXTT5=
EXTT6=
EXTT7=
EXTT8=
EXTT9=
EXTT10=
EXTT11=
EXTT12=
EXTT13=
PLAYORDER=
